<?xml version="1.0" encoding="UTF-8"?> <svg xmlns="http://www.w3.org/2000/svg" xmlns:xlink="http://www.w3.org/1999/xlink" width="1440px" height="569px" viewBox="0 0 1440 569"><!-- Generator: Sketch 59.1 (86144) - https://sketch.com --><title>Background</title><desc>Created with Sketch.</desc><defs><linearGradient x1="-1.36906328%" y1="44.1586382%" x2="52.0487942%" y2="50%" id="linearGradient-1"><stop stop-color="#6A38E1" offset="0%"></stop><stop stop-color="#4513BB" offset="100%"></stop></linearGradient><polygon id="path-2" points="0 2.23075031e-13 1440 2.23075031e-13 1440 569 0 569"></polygon><linearGradient x1="20.916035%" y1="45.4747807%" x2="41.7043683%" y2="48.2346279%" id="linearGradient-4"><stop stop-color="#4513BB" offset="0%"></stop><stop stop-color="#000000" offset="100%"></stop></linearGradient><polygon id="path-5" points="0 1.89633031e-12 1440 1.89633031e-12 1440 569 0 569"></polygon><linearGradient x1="20.916035%" y1="29.3322701%" x2="41.7043683%" y2="41.9371347%" id="linearGradient-7"><stop stop-color="#4513BB" offset="0%"></stop><stop stop-color="#000000" offset="100%"></stop></linearGradient><linearGradient x1="20.916035%" y1="29.2290463%" x2="41.7043683%" y2="41.8968652%" id="linearGradient-8"><stop stop-color="#4513BB" offset="0%"></stop><stop stop-color="#000000" offset="100%"></stop></linearGradient><linearGradient x1="20.916035%" y1="29.316533%" x2="41.7043683%" y2="41.9309954%" id="linearGradient-9"><stop stop-color="#4513BB" offset="0%"></stop><stop stop-color="#000000" offset="100%"></stop></linearGradient><linearGradient x1="20.916035%" y1="29.3493117%" x2="41.7043683%" y2="41.943783%" id="linearGradient-10"><stop stop-color="#4513BB" offset="0%"></stop><stop stop-color="#000000" offset="100%"></stop></linearGradient></defs><g id="Page-1" stroke="none" stroke-width="1" fill="none" fill-rule="evenodd"><g id="Digital-Strategy" transform="translate(0.000000, -6.000000)"><g id="Background" transform="translate(0.000000, 6.000000)"><g id="products_curve"><g id="Curve"><mask id="mask-3" fill="white"><use xlink:href="#path-2"></use></mask><use id="shape" fill="url(#linearGradient-1)" xlink:href="#path-2"></use><g id="curves" mask="url(#mask-3)"><g id="Path"><mask id="mask-6" fill="white"><use xlink:href="#path-5"></use></mask><use id="Mask" fill="url(#linearGradient-4)" fill-rule="nonzero" xlink:href="#path-5"></use><g id="Group-19" mask="url(#mask-6)"><g transform="translate(-1146.581395, -1301.976744)"><path d="M1772.30163,2328.90301 C1609.82194,1988.90889 1702.17206,1764.18674 2049.35198,1654.73654 C2396.53191,1545.28635 2594.80078,1313.85331 2644.1586,960.43744 L3454.11899,1043.73598 L3310.2759,2247.584 L2965.26987,2446.26833 L1940.84381,2415.63237 L1772.30163,2328.90301 Z" id="Path-2-Copy" fill="url(#linearGradient-7)" transform="translate(2574.361369, 1703.352886) rotate(-345.000000) translate(-2574.361369, -1703.352886) "></path><path d="M2019.6513,2137.7882 C1902.68642,1892.55912 1969.09817,1730.50563 2218.88655,1651.62774 C2468.67494,1572.74985 2611.29731,1405.87393 2646.75367,1151 L3229.55814,1211.20786 L3126.25654,2079.39437 L2878.047,2222.62791 L2140.9367,2200.36479 L2019.6513,2137.7882 Z" id="Path-2" fill="url(#linearGradient-8)"></path><path d="M328.177059,2032.38163 C120.858359,1598.63269 238.572311,1312.00058 681.318915,1172.48531 C1124.06552,1032.97004 1376.86178,737.808272 1439.70771,287 L2472.72093,393.492648 L2289.62021,1929.09755 L1849.67209,2182.44186 L543.15383,2143.06398 L328.177059,2032.38163 Z" id="Path-2-Copy-6" fill="url(#linearGradient-9)" transform="translate(1350.860465, 1234.720930) rotate(-197.000000) translate(-1350.860465, -1234.720930) "></path><path d="M373.838137,1656.16863 C211.077486,1315.91327 303.491723,1091.06406 651.080848,981.620986 C998.669973,872.177913 1197.13391,640.637584 1246.47265,287 L2057.46512,370.538403 L1913.71739,1575.14719 L1568.32528,1773.88372 L542.610945,1742.99365 L373.838137,1656.16863 Z" id="Path-2-Copy-2" fill="url(#linearGradient-10)" opacity="0.709100632" transform="translate(1176.720930, 1030.441860) rotate(-180.000000) translate(-1176.720930, -1030.441860) "></path></g></g></g></g></g></g></g></g></g></svg> 